<svg xmlns="http://www.w3.org/2000/svg" viewBox="0 0 188 62.6"><defs><style>.cls-1{fill:#1A1A18;}</style></defs><g id="Ebene_2" data-name="Ebene 2"><g id="Ebene_1-2" data-name="Ebene 1"><path class="cls-1" d="M17.6,47.1V.1H0V62H42.9L37.2,47.1Z"/><path class="cls-1" d="M77.5.1l-8.7,24C67,29,65.1,34.3,63.4,39.3h-.2c-1.6-5-3.3-9.9-5.1-15.1L49.6,0H30.7l6.8,17.8L54.4,61.9H72.1L95.8,0H77.5Z"/><path class="cls-1" d="M116.9,36c7.7-3.2,11.4-9,11.4-16.7a17.1,17.1,0,0,0-10-16.2A29.88,29.88,0,0,0,106.9.3l-5.3,13.8a16,16,0,0,1,6.1,1,5.13,5.13,0,0,1,3,5.1,5.19,5.19,0,0,1-2.5,4.9,13.74,13.74,0,0,1-6.9,1.3H97L83.3,62H99.7V38.5h0L113.5,62h20Z"/><path class="cls-1" d="M163,28.5V41.1h8.3v6.5a15,15,0,0,1-3.7.4c-10.6,0-17.1-7.4-17.1-16.3s6.6-16.2,17.5-16.2a36,36,0,0,1,18,5.6V4.4A43.07,43.07,0,0,0,167.3.1c-19.7,0-34,13.6-34,31.6,0,15.5,10.5,27.5,26.9,30.3a46.16,46.16,0,0,0,7.4.6,47.72,47.72,0,0,0,7.6-.6A43.06,43.06,0,0,0,188,58.2V28.5Z"/></g></g></svg>
